<svg width="452" height="521" viewBox="0 0 452 521" fill="none" xmlns="http://www.w3.org/2000/svg">
    <path d="M373.8 520.07V470.5C417.038 469.145 451.796 433.562 451.796 390V164.82C451.796 120.402 415.648 84.254 371.23 84.254H342.277V29.793C342.277 13.504 329.023 0.253998 312.75 0.253998H139.25C122.961 0.253998 109.711 13.504 109.711 29.793V84.254H80.77C36.344 84.254 0.203979 120.402 0.203979 164.82V390C0.203979 433.562 34.97 469.145 78.208 470.5V520.07H373.8ZM357.218 503.511H94.768V470.566H357.218V503.511ZM126.268 29.801C126.268 22.6369 132.088 16.821 139.248 16.821H312.738C319.902 16.821 325.707 22.6452 325.707 29.801V84.262H126.267L126.268 29.801ZM16.758 390.001V164.821C16.758 129.536 45.469 100.817 80.766 100.817H371.226C406.511 100.817 435.234 129.536 435.234 164.821V390.001C435.234 425.298 406.511 454.013 371.226 454.013H80.766C45.469 454.013 16.758 425.298 16.758 390.001V390.001Z" fill="black"/>
    <path d="M180.62 251.01C180.62 263.854 170.206 274.268 157.362 274.268C144.518 274.268 134.104 263.854 134.104 251.01C134.104 238.166 144.518 227.756 157.362 227.756C170.206 227.756 180.62 238.166 180.62 251.01Z" fill="black"/>
    <path d="M317.89 251.01C317.89 263.854 307.476 274.268 294.632 274.268C281.788 274.268 271.374 263.854 271.374 251.01C271.374 238.166 281.788 227.756 294.632 227.756C307.476 227.756 317.89 238.166 317.89 251.01Z" fill="black"/>
    <path d="M152.19 334.2C148.42 337.981 148.436 344.106 152.217 347.86C172.635 368.204 199.459 378.376 226.283 378.376C253.107 378.376 279.935 368.208 300.33 347.86C304.116 344.102 304.139 337.977 300.373 334.2C296.6 330.419 290.483 330.415 286.705 334.173C253.393 367.368 199.182 367.368 165.845 334.173C162.064 330.415 155.955 330.423 152.185 334.2H152.19Z" fill="black"/>
</svg>
