<svg width="482" height="370" viewBox="0 0 482 370" fill="none" xmlns="http://www.w3.org/2000/svg">
    <path d="M241 0.198997C226.539 0.198997 213.473 1.9685 203.551 5.2732C198.59 6.9294 194.449 8.9451 191.125 11.574C187.801 14.2029 185 18.0193 185 22.601V35.55L162.25 44.9992C161.766 44.8234 161.352 44.6398 160.852 44.4758C150.926 41.1672 137.864 39.3977 123.399 39.3977C108.938 39.3977 95.8756 41.1672 85.9496 44.4758C80.9887 46.1281 76.8519 48.1438 73.5236 50.7727C70.1994 53.4016 67.3986 57.218 67.3986 61.7997V85.9477L3.69962 112.55C1.62932 113.386 0.176219 115.565 0.199619 117.8V269C0.246494 271.175 1.68402 273.257 3.69962 274.074L238.9 369.273C239.571 369.523 240.286 369.644 241.001 369.624C241.716 369.648 242.431 369.519 243.103 369.273L478.303 274.074C480.318 273.257 481.756 271.175 481.803 269V117.8C481.826 115.565 480.373 113.386 478.303 112.55L414.604 85.9477V61.7997C414.604 57.2177 411.803 53.4013 408.479 50.7727C405.151 48.1438 401.014 46.1282 396.053 44.4758C386.127 41.1672 373.065 39.3977 358.604 39.3977C344.139 39.3977 331.077 41.1672 321.151 44.4758C320.651 44.6398 320.237 44.8234 319.752 44.9992L297.002 35.55V22.601C297.002 18.019 294.202 14.2026 290.877 11.574C287.553 8.9451 283.413 6.9295 278.451 5.2732C268.53 1.9685 255.463 0.198997 241.002 0.198997H241ZM241 11.398C254.461 11.398 266.656 13.1832 274.949 15.9488C279.097 17.3316 282.289 18.9293 284.051 20.3238C285.812 21.7183 285.801 22.5269 285.801 22.6011C285.801 22.6011 285.765 27.8511 285.801 28.1988C285.801 28.273 285.812 28.9058 284.051 30.3004C282.289 31.695 279.098 33.2926 274.949 34.6754C266.656 37.441 254.461 39.3981 241 39.3981C227.539 39.3981 215.344 37.4411 207.051 34.6754C202.903 33.2926 199.711 31.6949 197.949 30.3004C196.188 28.9059 196.199 28.2731 196.199 28.1988C196.235 27.8511 196.199 22.6011 196.199 22.6011C196.199 22.5269 196.188 21.7183 197.949 20.3238C199.711 18.9293 202.903 17.3316 207.051 15.9488C215.344 13.1832 227.539 11.398 241 11.398ZM196.199 42.199C198.422 43.3631 200.836 44.4451 203.551 45.3513C213.473 48.656 226.539 50.6013 241 50.6013C255.461 50.6013 268.527 48.656 278.449 45.3513C281.163 44.4451 283.578 43.363 285.8 42.199V67.398C285.8 67.4722 285.812 68.105 284.05 69.4996C282.289 70.8942 279.097 72.4918 274.949 73.8746C266.656 76.6402 254.461 78.6012 241 78.6012C227.539 78.6012 215.344 76.6403 207.051 73.8746C202.902 72.4918 199.711 70.8941 197.949 69.4996C196.187 68.1051 196.199 67.4723 196.199 67.398V42.199ZM185 47.6248V67.3978C185 71.9798 187.801 75.6205 191.125 78.2498C194.199 80.6834 198.023 82.617 202.5 84.199C198.051 85.7771 194.188 87.5545 191.125 89.9763C187.801 92.6052 185 96.4177 185 100.999V145.8C185 150.382 187.801 154.019 191.125 156.648C194.449 159.277 198.59 161.297 203.551 162.949C213.473 166.258 226.539 168.199 241 168.199C255.461 168.199 268.527 166.258 278.449 162.949C283.41 161.297 287.551 159.277 290.875 156.648C294.199 154.019 297 150.383 297 145.8V100.999C297 96.4173 294.199 92.6048 290.875 89.9763C287.813 87.5544 283.949 85.7771 279.5 84.199C283.977 82.617 287.801 80.6834 290.875 78.2498C294.199 75.6209 297 71.9803 297 67.3978V47.6248L307.5 51.9998C304.781 54.5428 302.602 57.8357 302.602 61.8006V106.602C302.602 111.18 305.399 114.82 308.727 117.45C312.051 120.079 316.188 122.098 321.149 123.75C331.074 127.059 344.137 129 358.602 129C373.063 129 386.125 127.059 396.051 123.75C401.012 122.098 405.148 120.079 408.477 117.45C411.801 114.821 414.602 111.18 414.602 106.602V98.0235L461.5 117.626L241 206.875L20.4996 117.626L67.3976 98.0235V106.602C67.3976 111.18 70.1984 114.82 73.5226 117.45C76.8507 120.079 80.9874 122.098 85.9486 123.75C95.8744 127.059 108.937 129 123.398 129C137.863 129 150.925 127.059 160.851 123.75C165.812 122.098 169.948 120.079 173.273 117.45C176.601 114.821 179.398 111.18 179.398 106.602V61.8006C179.398 57.8358 177.218 54.5428 174.499 51.9998L185 47.6248ZM123.398 50.6014C136.859 50.6014 149.054 52.3866 157.351 55.1483C161.496 56.5311 164.687 58.1327 166.449 59.5233C168.21 60.9178 168.199 61.7264 168.199 61.8006V67.3983C168.199 67.4725 168.21 68.1053 166.449 69.4999C164.687 70.8945 161.496 72.4921 157.351 73.8749C149.054 76.6405 136.859 78.6015 123.398 78.6015C109.941 78.6015 97.746 76.6406 89.449 73.8749C85.3006 72.4921 82.1131 70.8944 80.3513 69.4999C78.5857 68.1054 78.6013 67.4726 78.6013 67.3983C78.6326 67.0506 78.6013 61.8006 78.6013 61.8006C78.6013 61.7264 78.5857 60.9178 80.3513 59.5233C82.113 58.1327 85.3005 56.5311 89.449 55.1483C97.7459 52.3866 109.941 50.6014 123.398 50.6014V50.6014ZM358.598 50.6014C372.055 50.6014 384.25 52.3866 392.547 55.1483C396.695 56.5311 399.883 58.1327 401.645 59.5233C403.41 60.9178 403.395 61.7264 403.395 61.8006C403.395 61.8006 403.363 67.0506 403.395 67.3983C403.395 67.4725 403.41 68.1053 401.645 69.4999C399.883 70.8944 396.696 72.4921 392.547 73.8749C384.25 76.6405 372.055 78.6015 358.598 78.6015C345.137 78.6015 332.942 76.6406 324.645 73.8749C320.501 72.4921 317.309 70.8944 315.547 69.4999C313.786 68.1054 313.797 67.4726 313.797 67.3983V61.8006C313.797 61.7264 313.786 60.9178 315.547 59.5233C317.309 58.1327 320.5 56.5311 324.645 55.1483C332.942 52.3866 345.137 50.6014 358.598 50.6014ZM78.598 81.3984C80.8168 82.5625 83.2347 83.6445 85.9457 84.5507C95.8715 87.8593 108.934 89.8007 123.395 89.8007C137.86 89.8007 150.922 87.8593 160.848 84.5507C163.559 83.6445 165.973 82.5624 168.195 81.3984V106.601C168.195 106.672 168.207 107.305 166.445 108.699C164.684 110.094 161.492 111.691 157.348 113.074C149.051 115.84 136.856 117.801 123.395 117.801C109.938 117.801 97.7427 115.84 89.4457 113.074C85.2973 111.691 82.1098 110.094 80.348 108.699C78.5824 107.305 78.598 106.672 78.598 106.601V81.3984ZM313.798 81.3984C316.021 82.5625 318.435 83.6445 321.146 84.5507C331.072 87.8593 344.134 89.8007 358.599 89.8007C373.06 89.8007 386.122 87.8593 396.048 84.5507C398.759 83.6445 401.177 82.5624 403.395 81.3984V106.601C403.395 106.672 403.411 107.305 401.645 108.699C399.884 110.094 396.696 111.691 392.548 113.074C384.251 115.84 372.056 117.801 358.599 117.801C345.138 117.801 332.943 115.84 324.646 113.074C320.501 111.691 317.31 110.094 315.548 108.699C313.786 107.305 313.798 106.672 313.798 106.601V81.3984ZM240.997 89.8007C254.458 89.8007 266.653 91.5859 274.946 94.3515C279.094 95.7343 282.286 97.332 284.048 98.7265C285.809 100.117 285.798 100.926 285.798 101C285.798 101 285.762 106.25 285.798 106.602C285.798 106.672 285.809 107.305 284.048 108.699C282.286 110.094 279.095 111.691 274.946 113.074C266.653 115.84 254.458 117.801 240.997 117.801C227.536 117.801 215.341 115.84 207.048 113.074C202.9 111.691 199.708 110.094 197.946 108.699C196.185 107.305 196.196 106.672 196.196 106.602C196.232 106.25 196.196 101 196.196 101C196.196 100.926 196.185 100.117 197.946 98.7265C199.708 97.332 202.9 95.7343 207.048 94.3515C215.341 91.5859 227.536 89.8007 240.997 89.8007ZM196.196 120.602C198.419 121.762 200.833 122.848 203.548 123.75C213.47 127.059 226.536 129 240.997 129C255.458 129 268.524 127.059 278.446 123.75C281.16 122.848 283.575 121.762 285.797 120.602V145.801C285.797 145.871 285.809 146.508 284.047 147.898C282.286 149.293 279.094 150.891 274.946 152.273C266.653 155.039 254.458 157 240.997 157C227.536 157 215.341 155.039 207.048 152.273C202.899 150.891 199.708 149.293 197.946 147.898C196.184 146.508 196.196 145.871 196.196 145.801V120.602ZM11.396 126.024L235.576 216.852C235.428 217.418 235.369 218.012 235.4 218.602V355.802L11.4002 265.15L11.396 126.024ZM470.596 126.024V265.144L246.596 355.796V218.596C246.627 218.006 246.569 217.412 246.42 216.846L470.596 126.024Z" fill="black"/>
</svg>
