<svg width="491" height="420" viewBox="0 0 491 420" fill="none" xmlns="http://www.w3.org/2000/svg">
    <path d="M429.93 100.45L428.348 82.95L395.973 85.7547L397.375 103.255L429.93 100.45ZM372.875 210.7L472.629 202.122L465.102 114.802L365.348 123.552L372.875 210.7ZM377.602 78.57C377.25 73.8434 380.754 69.4684 385.649 69.1208L435.524 64.7458H436.223C440.77 64.5739 444.621 68.07 444.973 72.7966L447.25 98.8746L472.277 96.773C477.004 96.2496 481.379 99.7457 481.73 104.648L490.832 209.298C491.351 214.025 487.679 218.22 482.953 218.747L365.703 228.899C360.976 229.419 356.601 225.919 356.254 221.02L347.16 116.37C346.629 111.644 350.304 107.441 355.031 106.921L380.058 104.82L377.602 78.57Z" fill="black"/>
    <path d="M439.55 280V262.5H407.003V280H439.55ZM203.12 35V17.5H170.573V35H203.12ZM236.897 280V175H136.627V280H236.897ZM321.424 280V262.5H288.697V280H321.424ZM473.494 297.5H136.614V402.5H473.494V297.5ZM85.344 35V17.5H52.797V35H85.344ZM119.121 157.5H236.891V52.5H18.491V157.5H119.121ZM482.241 420H127.861C123.134 420 119.111 416.144 119.111 411.25V175H9.73102C4.83652 175 0.981018 171.144 0.981018 166.25V43.75C0.981018 38.8438 4.83652 35 9.73102 35H35.282V8.75C35.282 3.8438 39.1375 0 44.032 0H94.079C98.9852 0 102.829 3.8438 102.829 8.75V35H153.056V8.75C153.056 3.8438 156.912 0 161.806 0H211.853C216.58 0 220.603 3.8438 220.603 8.75V35H245.63C250.357 35 254.38 38.8438 254.38 43.75V280H271.181V253.75C271.181 248.844 275.204 245 279.931 245H330.158C334.885 245 338.908 248.844 338.908 253.75V280H389.486V253.75C389.486 248.844 393.509 245 398.236 245H448.283C453.178 245 457.033 248.844 457.033 253.75V280H482.232C486.959 280 490.982 283.844 490.982 288.75V411.25C490.982 416.144 486.959 420 482.232 420H482.241Z" fill="black"/>
</svg>
